Coordinates
version=1
nRows=9
nColumns=24
inDegrees=yes

Units are S.I. units (second, meters, Newtons, ...)
Angles are in degrees.

endheader
time	pelvis_tilt	pelvis_list	pelvis_rotation	pelvis_tx	pelvis_ty	pelvis_tz	hip_flexion_r	hip_adduction_r	hip_rotation_r	knee_angle_r	ankle_angle_r	subtalar_angle_r	mtp_angle_r	hip_flexion_l	hip_adduction_l	hip_rotation_l	knee_angle_l	ankle_angle_l	subtalar_angle_l	mtp_angle_l	lumbar_extension	lumbar_bending	lumbar_rotation
      1.45383333	      2.70425012	      5.07204795	     -1.30929580	      0.22352589	      1.03185095	      0.29055851	     11.35125486	     -7.89186702	     -8.70857809	    -68.79390561	     -3.76227060	     -6.66313766	      1.22390185	      4.96175274	      9.42622330	      3.64136904	    -10.89955259	      3.42515455	    -13.57002749	     -0.60735911	     -5.33129768	     -7.97247403	      3.99028504
      1.45800000	      2.68027146	      4.90968791	     -1.36088343	      0.22824099	      1.03253562	      0.29032242	     12.06067049	     -7.73227603	     -8.68481498	    -68.77120945	     -3.23598429	     -6.52347720	      1.23758618	      4.53436900	      9.27201994	      3.68572013	    -10.58506289	      3.47526035	    -13.61629773	     -0.59055358	     -5.38093151	     -7.75197723	      3.96848038
      1.46216667	      2.67907152	      4.74665384	     -1.41124740	      0.23297065	      1.03325077	      0.29011517	     12.72420739	     -7.56277005	     -8.66867119	    -68.67419293	     -2.78584191	     -6.51683909	      1.25034633	      4.07627892	      9.11375047	      3.71181526	    -10.25912015	      3.54517421	    -13.62775591	     -0.58213610	     -5.43075390	     -7.54964357	      3.94312509
      1.46633333	      2.68211725	      4.58224092	     -1.44062116	      0.23762783	      1.03391496	      0.28981783	     13.37713329	     -7.40871621	     -8.67988800	    -68.54711055	     -2.27621200	     -6.35189352	      1.26857876	      3.63035803	      8.96324203	      3.77540810	     -9.96286317	      3.58028285	    -13.69372504	     -0.56934801	     -5.54765295	     -7.29634352	      3.90900088
      1.47050000	      2.66933689	      4.42836059	     -1.47574601	      0.24234376	      1.03454457	      0.28957944	     14.02609971	     -7.24991396	     -8.68221620	    -68.34661049	     -1.85462370	     -6.36366476	      1.28222737	      3.18808002	      8.81735485	      3.81579726	     -9.64184076	      3.64779221	    -13.70919628	     -0.56254872	     -5.58385076	     -7.10834935	      3.87192463
      1.47466667	      2.66119734	      4.26457489	     -1.49773352	      0.24700938	      1.03513386	      0.28929624	     14.65952072	     -7.08646052	     -8.70304408	    -68.10350974	     -1.41735670	     -6.33112199	      1.29804824	      2.75355005	      8.66366419	      3.86790720	     -9.34396321	      3.70821885	    -13.73979389	     -0.55644306	     -5.65445376	     -6.87901643	      3.83133487
      1.47883333	      2.66198077	      4.11279948	     -1.49567603	      0.25166577	      1.03571877	      0.28894963	     15.26230478	     -6.94845198	     -8.74750588	    -67.80691523	     -0.94889243	     -6.17205774	      1.32594466	      2.30041812	      8.53157274	      4.00779305	     -9.02610349	      3.71520885	    -13.87736871	     -0.54315249	     -5.76734155	     -6.65106724	      3.72446494
      1.48300000	      2.65803133	      3.95273724	     -1.50796777	      0.25632489	      1.03626664	      0.28866366	     15.85613151	     -6.78467362	     -8.78233689	    -67.44448939	     -0.55892858	     -6.24210312	      1.34034527	      1.87012326	      8.37938263	      4.03918410	     -8.74341402	      3.78196309	    -13.88821720	     -0.53907957	     -5.83412934	     -6.43359862	      3.68901869
      1.48716667	      2.67296790	      3.79455493	     -1.49551033	      0.26096443	      1.03682180	      0.28830310	     16.40701113	     -6.63698007	     -8.84173610	    -67.02608886	     -0.15051333	     -6.17366368	      1.37020485	      1.41000284	      8.23728506	      4.16452441	     -8.44022446	      3.81634857	    -13.97711201	     -0.53204812	     -5.95965296	     -6.19564304	      3.57569905
